<?xml version="1.0" encoding="UTF-8"?>
<svg width="136px" height="44px" viewBox="0 0 136 44" version="1.1" xmlns="http://www.w3.org/2000/svg" xmlns:xlink="http://www.w3.org/1999/xlink">
    <!-- Generator: Sketch 52.4 (67378) - http://www.bohemiancoding.com/sketch -->
    <title>illustration-02</title>
    <desc>Created with Sketch.</desc>
    <g id="Desktop-v2" stroke="none" stroke-width="1" fill="none" fill-rule="evenodd">
        <g id="cpr-report-design-01-1" transform="translate(-935.000000, -1218.000000)" fill="#E85868">
            <g id="Group-8" transform="translate(0.000000, 1050.000000)">
                <g id="illustration-02" transform="translate(935.000000, 168.000000)">
                    <rect id="Rectangle" x="0" y="0" width="4" height="8"></rect>
                    <rect id="Rectangle" x="12" y="0" width="4" height="8"></rect>
                    <rect id="Rectangle" x="24" y="0" width="4" height="8"></rect>
                    <rect id="Rectangle" x="48" y="0" width="4" height="8"></rect>
                    <rect id="Rectangle" x="60" y="0" width="4" height="8"></rect>
                    <rect id="Rectangle" x="72" y="0" width="4" height="8"></rect>
                    <rect id="Rectangle" x="84" y="0" width="4" height="8"></rect>
                    <rect id="Rectangle" x="96" y="0" width="4" height="8"></rect>
                    <rect id="Rectangle" x="108" y="0" width="4" height="8"></rect>
                    <rect id="Rectangle" x="120" y="0" width="4" height="8"></rect>
                    <rect id="Rectangle" x="132" y="0" width="4" height="8"></rect>
                    <rect id="Rectangle" x="12" y="12" width="4" height="8"></rect>
                    <rect id="Rectangle" x="24" y="12" width="4" height="8"></rect>
                    <rect id="Rectangle" x="36" y="12" width="4" height="8"></rect>
                    <rect id="Rectangle" x="48" y="12" width="4" height="8"></rect>
                    <rect id="Rectangle" x="72" y="12" width="4" height="8"></rect>
                    <rect id="Rectangle" x="84" y="12" width="4" height="8"></rect>
                    <rect id="Rectangle" x="96" y="12" width="4" height="8"></rect>
                    <rect id="Rectangle" x="108" y="12" width="4" height="8"></rect>
                    <rect id="Rectangle" x="120" y="12" width="4" height="8"></rect>
                    <rect id="Rectangle" x="132" y="12" width="4" height="8"></rect>
                    <rect id="Rectangle" x="0" y="24" width="4" height="8"></rect>
                    <rect id="Rectangle" x="12" y="24" width="4" height="8"></rect>
                    <rect id="Rectangle" x="24" y="24" width="4" height="8"></rect>
                    <rect id="Rectangle" x="36" y="24" width="4" height="8"></rect>
                    <rect id="Rectangle" x="60" y="24" width="4" height="8"></rect>
                    <rect id="Rectangle" x="72" y="24" width="4" height="8"></rect>
                    <rect id="Rectangle" x="84" y="24" width="4" height="8"></rect>
                    <rect id="Rectangle" x="96" y="24" width="4" height="8"></rect>
                    <rect id="Rectangle" x="120" y="24" width="4" height="8"></rect>
                    <rect id="Rectangle" x="0" y="36" width="4" height="8"></rect>
                    <rect id="Rectangle" x="12" y="36" width="4" height="8"></rect>
                    <rect id="Rectangle" x="24" y="36" width="4" height="8"></rect>
                    <rect id="Rectangle" x="36" y="36" width="4" height="8"></rect>
                    <rect id="Rectangle" x="48" y="36" width="4" height="8"></rect>
                    <rect id="Rectangle" x="60" y="36" width="4" height="8"></rect>
                    <rect id="Rectangle" x="72" y="36" width="4" height="8"></rect>
                    <rect id="Rectangle" x="84" y="36" width="4" height="8"></rect>
                    <rect id="Rectangle" x="96" y="36" width="4" height="8"></rect>
                    <rect id="Rectangle" x="120" y="36" width="4" height="8"></rect>
                    <rect id="Rectangle" x="132" y="36" width="4" height="8"></rect>
                </g>
            </g>
        </g>
    </g>
</svg>