<?xml version="1.0" encoding="UTF-8"?>
<svg width="184px" height="116px" viewBox="0 0 184 116" version="1.1" xmlns="http://www.w3.org/2000/svg" xmlns:xlink="http://www.w3.org/1999/xlink">
    <!-- Generator: Sketch 52.4 (67378) - http://www.bohemiancoding.com/sketch -->
    <title>cpr-illustration-report</title>
    <desc>Created with Sketch.</desc>
    <g id="Desktop-v2" stroke="none" stroke-width="1" fill="none" fill-rule="evenodd">
        <g id="cpr-report-design-01-1" transform="translate(-421.000000, -160.000000)">
            <g id="Group-12">
                <g id="cpr-illustration-report" transform="translate(513.000000, 218.000000) rotate(-180.000000) translate(-513.000000, -218.000000) translate(421.000000, 160.000000)">
                    <rect id="Rectangle" fill="#989CA0" x="0" y="80" width="16" height="4"></rect>
                    <rect id="Rectangle" fill="#989CA0" x="24" y="80" width="16" height="4"></rect>
                    <rect id="Rectangle" fill="#E85868" x="48" y="80" width="16" height="4"></rect>
                    <rect id="Rectangle" fill="#989CA0" x="72" y="80" width="16" height="4"></rect>
                    <rect id="Rectangle" fill="#989CA0" x="96" y="80" width="16" height="4"></rect>
                    <rect id="Rectangle" fill="#989CA0" x="120" y="80" width="16" height="4"></rect>
                    <rect id="Rectangle" fill="#989CA0" x="96" y="96" width="16" height="4"></rect>
                    <rect id="Rectangle" fill="#989CA0" x="120" y="96" width="16" height="4"></rect>
                    <rect id="Rectangle" fill="#989CA0" x="72" y="112" width="16" height="4"></rect>
                    <rect id="Rectangle" fill="#989CA0" x="96" y="112" width="16" height="4"></rect>
                    <rect id="Rectangle" fill="#989CA0" x="120" y="112" width="16" height="4"></rect>
                    <rect id="Rectangle" fill="#989CA0" x="0" y="64" width="16" height="4"></rect>
                    <rect id="Rectangle" fill="#989CA0" x="24" y="64" width="16" height="4"></rect>
                    <rect id="Rectangle" fill="#989CA0" x="48" y="64" width="16" height="4"></rect>
                    <rect id="Rectangle" fill="#989CA0" x="72" y="64" width="16" height="4"></rect>
                    <rect id="Rectangle" fill="#989CA0" x="96" y="64" width="16" height="4"></rect>
                    <rect id="Rectangle" fill="#989CA0" x="120" y="64" width="16" height="4"></rect>
                    <rect id="Rectangle" fill="#989CA0" x="144" y="80" width="16" height="4"></rect>
                    <rect id="Rectangle" fill="#989CA0" x="168" y="80" width="16" height="4"></rect>
                    <rect id="Rectangle" fill="#989CA0" x="144" y="96" width="16" height="4"></rect>
                    <rect id="Rectangle" fill="#989CA0" x="168" y="96" width="16" height="4"></rect>
                    <rect id="Rectangle" fill="#989CA0" x="144" y="112" width="16" height="4"></rect>
                    <rect id="Rectangle" fill="#989CA0" x="168" y="112" width="16" height="4"></rect>
                    <rect id="Rectangle" fill="#E85868" x="144" y="64" width="16" height="4"></rect>
                    <rect id="Rectangle" fill="#989CA0" x="168" y="64" width="16" height="4"></rect>
                    <rect id="Rectangle" fill="#989CA0" x="0" y="48" width="16" height="4"></rect>
                    <rect id="Rectangle" fill="#989CA0" x="24" y="48" width="16" height="4"></rect>
                    <rect id="Rectangle" fill="#989CA0" x="48" y="48" width="16" height="4"></rect>
                    <rect id="Rectangle" fill="#989CA0" x="72" y="48" width="16" height="4"></rect>
                    <rect id="Rectangle" fill="#989CA0" x="96" y="48" width="16" height="4"></rect>
                    <rect id="Rectangle" fill="#989CA0" x="120" y="48" width="16" height="4"></rect>
                    <rect id="Rectangle" fill="#989CA0" x="0" y="32" width="16" height="4"></rect>
                    <rect id="Rectangle" fill="#989CA0" x="24" y="32" width="16" height="4"></rect>
                    <rect id="Rectangle" fill="#989CA0" x="48" y="32" width="16" height="4"></rect>
                    <rect id="Rectangle" fill="#989CA0" x="72" y="32" width="16" height="4"></rect>
                    <rect id="Rectangle" fill="#989CA0" x="96" y="32" width="16" height="4"></rect>
                    <rect id="Rectangle" fill="#989CA0" x="120" y="32" width="16" height="4"></rect>
                    <rect id="Rectangle" fill="#E85868" x="144" y="48" width="16" height="4"></rect>
                    <rect id="Rectangle" fill="#989CA0" x="168" y="48" width="16" height="4"></rect>
                    <rect id="Rectangle" fill="#989CA0" x="144" y="32" width="16" height="4"></rect>
                    <rect id="Rectangle" fill="#989CA0" x="168" y="32" width="16" height="4"></rect>
                    <rect id="Rectangle" fill="#989CA0" x="0" y="96" width="16" height="4"></rect>
                    <rect id="Rectangle" fill="#E85868" x="24" y="96" width="16" height="4"></rect>
                    <rect id="Rectangle" fill="#989CA0" x="48" y="96" width="16" height="4"></rect>
                    <rect id="Rectangle" fill="#989CA0" x="72" y="96" width="16" height="4"></rect>
                    <rect id="Rectangle" fill="#989CA0" x="0" y="112" width="16" height="4"></rect>
                    <rect id="Rectangle" fill="#989CA0" x="24" y="112" width="16" height="4"></rect>
                    <rect id="Rectangle" fill="#989CA0" x="48" y="112" width="16" height="4"></rect>
                    <rect id="Rectangle" fill="#989CA0" x="0" y="16" width="16" height="4"></rect>
                    <rect id="Rectangle" fill="#989CA0" x="24" y="16" width="16" height="4"></rect>
                    <rect id="Rectangle" fill="#989CA0" x="0" y="3.41060513e-13" width="16" height="4"></rect>
                </g>
            </g>
        </g>
    </g>
</svg>