<?xml version="1.0" encoding="UTF-8"?>
<svg width="56px" height="56px" viewBox="0 0 56 56" version="1.1" xmlns="http://www.w3.org/2000/svg" xmlns:xlink="http://www.w3.org/1999/xlink">
    <!-- Generator: sketchtool 52.4 (67378) - http://www.bohemiancoding.com/sketch -->
    <title>E88ED7DB-C6A5-4A1A-A30C-A61A4CF97484</title>
    <desc>Created with sketchtool.</desc>
    <g id="Desktop-v2" stroke="none" stroke-width="1" fill="none" fill-rule="evenodd">
        <g id="cpr-main-design-02" transform="translate(-935.000000, -32.000000)" fill="#FFFFFF">
            <g id="Group-12">
                <g id="Group-4" transform="translate(935.000000, 32.000000)">
                    <path d="M1.89018547,11.543292 C0.727700993,10.5728163 0.106144324,9.220514 0.0244948441,7.48737953 L0,6.5248585 L0.0244948441,5.53747897 C0.0898144283,3.8043445 0.707288623,2.44806486 1.87691743,1.46864005 C3.04654623,0.490209576 4.57032966,0 6.44928832,0 C7.8822367,0 9.08452529,0.249579318 10.0571747,0.746749273 C11.0288035,1.24491357 11.7534427,1.83455714 12.2310921,2.51667432 C12.707721,3.19779715 12.9638962,3.82025394 12.9975766,4.38205599 C13.0128859,4.55805415 12.9557313,4.70720514 12.8240715,4.82752027 C12.6924117,4.9478354 12.5352365,5.00749579 12.354587,5.00749579 L9.04267994,5.00749579 C8.86203046,5.00749579 8.72220573,4.9677222 8.62320573,4.88718066 C8.52420574,4.80763347 8.43337069,4.67936362 8.35172121,4.50237112 C8.17005112,4.05292948 7.93530886,3.72380297 7.64749444,3.51499159 C7.35865941,3.30717454 6.99225736,3.20276885 6.5472677,3.20276885 C5.2786389,3.20276885 4.62033996,4.0211106 4.57032966,5.6577941 L4.54583481,6.57258681 L4.57032966,7.3670644 C4.58768017,8.20230993 4.7601647,8.81581765 5.08982447,9.20858192 C5.41846363,9.60234052 5.90529866,9.79822549 6.5472677,9.79822549 C7.02491716,9.79822549 7.40050476,9.69779715 7.67198929,9.49694049 C7.94449443,9.29707817 8.17005112,8.9639743 8.35172121,8.49862322 C8.43337069,8.32163072 8.52420574,8.19336087 8.62320573,8.11381368 C8.72220573,8.03327214 8.86203046,7.99250421 9.04267994,7.99250421 L12.354587,7.99250421 C12.5189066,7.99250421 12.6679169,8.04918158 12.798556,8.16154199 C12.9312364,8.2739024 12.9975766,8.41012697 12.9975766,8.57121004 C12.9975766,9.06837999 12.7699787,9.66597828 12.3178447,10.3640049 C11.8636695,11.0630259 11.1441334,11.6765336 10.1551541,12.2055224 C9.16719539,12.7355056 7.93122639,13 6.44928832,13 C4.57032966,13 3.05062871,12.5147621 1.89018547,11.543292 Z" id="Fill-1"></path>
                    <path d="M17.1809359,8.81382539 C17.0609784,8.68934178 17,8.52960617 17,8.33351694 L17,5.66648306 C17,5.47039383 17.0609784,5.31065822 17.1809359,5.18617461 C17.3028927,5.06169099 17.45184,5 17.629777,5 L55.3952142,5 C55.5721515,5 55.7180998,5.06169099 55.8300602,5.18617461 C55.9440198,5.31065822 56,5.47039383 56,5.66648306 L56,8.33351694 C56,8.51087855 55.9440198,8.66620766 55.8300602,8.79950427 C55.7180998,8.93390251 55.5721515,9 55.3952142,9 L17.629777,9 C17.45184,9 17.3028927,8.93830901 17.1809359,8.81382539 Z" id="Fill-2"></path>
                    <path d="M0.179257362,29.8138254 C0.0597524541,29.6904434 0,29.5296062 0,29.3335169 L0,26.6664831 C0,26.4703938 0.0597524541,26.3106582 0.179257362,26.1861746 C0.300754019,26.061691 0.44913928,26 0.626404894,26 L27.3974961,26 C27.5747617,26 27.7191635,26.061691 27.8316973,26.1861746 C27.944231,26.3106582 28,26.4703938 28,26.6664831 L28,29.3335169 C28,29.5119802 27.944231,29.6662077 27.8316973,29.7995043 C27.7191635,29.9339025 27.5747617,30 27.3974961,30 L0.626404894,30 C0.44913928,30 0.300754019,29.938309 0.179257362,29.8138254 Z" id="Fill-3"></path>
                    <path d="M40.0095969,30.8423015 C40.3239923,30.4268587 40.505643,29.8475792 40.5535509,29.1073887 C40.5705182,28.9503786 40.5785029,28.7055989 40.5785029,28.375 C40.5785029,28.0453763 40.5705182,27.8005966 40.5535509,27.6435865 C40.505643,26.9033961 40.3239923,26.326067 40.0095969,25.9076985 C39.6961996,25.4912804 39.1761996,25.2825838 38.4525912,25.2825838 C37.7599232,25.2825838 37.2439155,25.4990821 36.9055662,25.9320789 C36.5672169,26.3650757 36.3815739,26.912173 36.3496353,27.5723956 C36.3326679,27.7771914 36.3256814,28.0765833 36.3256814,28.4705714 C36.3256814,28.8479807 36.3326679,29.1385957 36.3496353,29.3433915 C36.3815739,29.9577788 36.5712092,30.4648922 36.9175432,30.866682 C37.2638772,31.2674966 37.7748944,31.4683915 38.4525912,31.4683915 C39.1761996,31.4683915 39.6961996,31.2596948 40.0095969,30.8423015 Z M32.1816507,38.8351882 C32.0608829,38.7240133 32,38.5826067 32,38.4099931 L32,22.8269849 C32,22.6533961 32.0608829,22.5119894 32.1816507,22.4017898 C32.3024184,22.2915902 32.4511324,22.236978 32.6277927,22.236978 L35.503263,22.236978 C35.6809213,22.236978 35.8266411,22.2915902 35.9384261,22.4017898 C36.0512092,22.5119894 36.1080998,22.6533961 36.1080998,22.8269849 L36.1080998,23.6773749 C36.977428,22.5597751 38.2260269,22 39.8538964,22 C41.4158925,22 42.6445298,22.4768816 43.53881,23.4286944 C44.4320921,24.3814823 44.9121689,25.7389858 44.9760461,27.5021799 C44.9920154,27.7069757 45,27.9975906 45,28.375 C45,28.7533846 44.9920154,29.0518013 44.9760461,29.2731758 C44.9121689,30.9720055 44.4280998,32.3100046 43.5258349,33.2861978 C42.6235701,34.262391 41.3999232,34.75 39.8538964,34.75 C38.2909021,34.75 37.1231478,34.231184 36.3496353,33.1925769 L36.3496353,38.4099931 C36.3496353,38.5826067 36.2927447,38.7240133 36.1809597,38.8351882 C36.0671785,38.9453878 35.9224568,39 35.7457965,39 L32.6277927,39 C32.4511324,39 32.3024184,38.9453878 32.1816507,38.8351882 Z" id="Fill-4"></path>
                    <path d="M0.191540303,51.8127238 C0.0638467678,51.6882402 0,51.5296062 0,51.3324153 L0,48.6653814 C0,48.4692922 0.0638467678,48.3106582 0.191540303,48.1861746 C0.321362064,48.0605894 0.479914871,48 0.669326949,48 L7.35514765,48 C7.54455972,48 7.69885608,48.0605894 7.81910082,48.1861746 C7.93934557,48.3106582 8,48.4692922 8,48.6653814 L8,51.3324153 C8,51.5097769 7.93934557,51.6662077 7.81910082,51.7995043 C7.69885608,51.9328009 7.54455972,52 7.35514765,52 L0.669326949,52 C0.479914871,52 0.321362064,51.938309 0.191540303,51.8127238 Z" id="Fill-5"></path>
                    <path d="M12.1726027,55.8130759 C12.0578504,55.6881157 12,55.5425008 12,55.3751986 L12,43.6495869 C12,43.465761 12.0540569,43.3118843 12.160274,43.1858913 C12.2683878,43.060931 12.4059009,43 12.5737619,43 L15.3752371,43 C15.543098,43 15.685353,43.060931 15.8001054,43.1858913 C15.9148577,43.3118843 15.9727081,43.465761 15.9727081,43.6495869 L15.9727081,44.5986654 C16.4013699,44.0823006 16.9030558,43.6867652 17.4768177,43.4120591 C18.0496312,43.1363203 18.6897787,43 19.3934668,43 L20.4262381,43 C20.5950474,43 20.7325606,43.0568001 20.839726,43.1745313 C20.9468915,43.2912297 21,43.4399428 21,43.6237687 L21,46.349142 C21,46.5164442 20.9468915,46.6620591 20.839726,46.7870194 C20.7325606,46.9119797 20.5950474,46.9739434 20.4262381,46.9739434 L18.1074816,46.9739434 C17.495785,46.9739434 17.0244468,47.1577693 16.6953635,47.5243883 C16.3662803,47.89204 16.2022129,48.4084048 16.2022129,49.0745154 L16.2022129,55.3751986 C16.2022129,55.5590245 16.1443625,55.7087703 16.0286617,55.8265014 C15.9148577,55.9421671 15.7735511,56 15.6047418,56 L12.5737619,56 C12.4210748,56 12.2873551,55.9380362 12.1726027,55.8130759 Z" id="Fill-6"></path>
                    <path d="M24.1836735,51.8127238 C24.061901,51.6882402 24,51.5296062 24,51.3324153 L24,48.6653814 C24,48.4692922 24.061901,48.3106582 24.1836735,48.1861746 C24.3064607,48.0605894 24.4586763,48 24.6382908,48 L55.3860637,48 C55.5656782,48 55.7138347,48.0605894 55.827489,48.1861746 C55.9431728,48.3106582 56,48.4692922 56,48.6653814 L56,51.3324153 C56,51.5097769 55.9431728,51.6662077 55.827489,51.7995043 C55.7138347,51.9328009 55.5656782,52 55.3860637,52 L24.6382908,52 C24.4586763,52 24.3064607,51.938309 24.1836735,51.8127238 Z" id="Fill-7"></path>
                    <path d="M49.1822844,29.8138254 C49.0614329,29.6893418 49,29.5296062 49,29.3335169 L49,26.6664831 C49,26.4703938 49.0614329,26.3106582 49.1822844,26.1861746 C49.3051501,26.061691 49.4552074,26 49.6344704,26 L55.390707,26 C55.56997,26 55.715999,26.061691 55.8298008,26.1861746 C55.9436026,26.3106582 56,26.4703938 56,26.6664831 L56,29.3335169 C56,29.5119802 55.9436026,29.6662077 55.8298008,29.7995043 C55.715999,29.9328009 55.56997,30 55.390707,30 L49.6344704,30 C49.4552074,30 49.3051501,29.938309 49.1822844,29.8138254 Z" id="Fill-9"></path>
                </g>
            </g>
        </g>
    </g>
</svg>