<?xml version="1.0" encoding="UTF-8"?>
<svg width="376px" height="244px" viewBox="0 0 376 244" version="1.1" xmlns="http://www.w3.org/2000/svg" xmlns:xlink="http://www.w3.org/1999/xlink">
    <!-- Generator: Sketch 52.4 (67378) - http://www.bohemiancoding.com/sketch -->
    <title>cpr-illustration-404</title>
    <desc>Created with Sketch.</desc>
    <g id="Desktop-v2" stroke="none" stroke-width="1" fill="none" fill-rule="evenodd">
        <g id="cpr-error-design-01" transform="translate(-229.000000, -180.000000)">
            <g id="Group-12">
                <g id="cpr-illustration-404" transform="translate(417.000000, 302.000000) scale(-1, 1) translate(-417.000000, -302.000000) translate(229.000000, 180.000000)">
                    <rect id="Rectangle" fill="#989CA0" x="0" y="0" width="16" height="4"></rect>
                    <rect id="Rectangle" fill="#989CA0" x="24" y="0" width="16" height="4"></rect>
                    <rect id="Rectangle" fill="#989CA0" x="48" y="0" width="16" height="4"></rect>
                    <rect id="Rectangle" fill="#989CA0" x="72" y="0" width="16" height="4"></rect>
                    <rect id="Rectangle" fill="#989CA0" x="96" y="0" width="16" height="4"></rect>
                    <rect id="Rectangle" fill="#989CA0" x="120" y="0" width="16" height="4"></rect>
                    <rect id="Rectangle" fill="#989CA0" x="144" y="0" width="16" height="4"></rect>
                    <rect id="Rectangle" fill="#989CA0" x="168" y="0" width="16" height="4"></rect>
                    <rect id="Rectangle" fill="#989CA0" x="192" y="0" width="16" height="4"></rect>
                    <rect id="Rectangle" fill="#989CA0" x="216" y="0" width="16" height="4"></rect>
                    <rect id="Rectangle" fill="#989CA0" x="240" y="0" width="16" height="4"></rect>
                    <rect id="Rectangle" fill="#989CA0" x="264" y="0" width="16" height="4"></rect>
                    <rect id="Rectangle" fill="#989CA0" x="288" y="0" width="16" height="4"></rect>
                    <rect id="Rectangle" fill="#989CA0" x="312" y="0" width="16" height="4"></rect>
                    <rect id="Rectangle" fill="#989CA0" x="336" y="0" width="16" height="4"></rect>
                    <rect id="Rectangle" fill="#989CA0" x="360" y="0" width="16" height="4"></rect>
                    <rect id="Rectangle" fill="#989CA0" x="0" y="16" width="16" height="4"></rect>
                    <rect id="Rectangle" fill="#989CA0" x="24" y="16" width="16" height="4"></rect>
                    <rect id="Rectangle" fill="#989CA0" x="48" y="16" width="16" height="4"></rect>
                    <rect id="Rectangle" fill="#989CA0" x="72" y="16" width="16" height="4"></rect>
                    <rect id="Rectangle" fill="#989CA0" x="96" y="16" width="16" height="4"></rect>
                    <rect id="Rectangle" fill="#989CA0" x="120" y="16" width="16" height="4"></rect>
                    <rect id="Rectangle" fill="#989CA0" x="144" y="16" width="16" height="4"></rect>
                    <rect id="Rectangle" fill="#989CA0" x="168" y="16" width="16" height="4"></rect>
                    <rect id="Rectangle" fill="#989CA0" x="192" y="16" width="16" height="4"></rect>
                    <rect id="Rectangle" fill="#989CA0" x="216" y="16" width="16" height="4"></rect>
                    <rect id="Rectangle" fill="#989CA0" x="240" y="16" width="16" height="4"></rect>
                    <rect id="Rectangle" fill="#989CA0" x="264" y="16" width="16" height="4"></rect>
                    <rect id="Rectangle" fill="#989CA0" x="288" y="16" width="16" height="4"></rect>
                    <rect id="Rectangle" fill="#989CA0" x="312" y="16" width="16" height="4"></rect>
                    <rect id="Rectangle" fill="#989CA0" x="336" y="16" width="16" height="4"></rect>
                    <rect id="Rectangle" fill="#989CA0" x="360" y="16" width="16" height="4"></rect>
                    <rect id="Rectangle" fill="#989CA0" x="0" y="32" width="16" height="4"></rect>
                    <rect id="Rectangle" fill="#989CA0" x="24" y="32" width="16" height="4"></rect>
                    <rect id="Rectangle" fill="#989CA0" x="48" y="32" width="16" height="4"></rect>
                    <rect id="Rectangle" fill="#989CA0" x="72" y="32" width="16" height="4"></rect>
                    <rect id="Rectangle" fill="#989CA0" x="96" y="32" width="16" height="4"></rect>
                    <rect id="Rectangle" fill="#989CA0" x="120" y="32" width="16" height="4"></rect>
                    <rect id="Rectangle" fill="#989CA0" x="144" y="32" width="16" height="4"></rect>
                    <rect id="Rectangle" fill="#989CA0" x="168" y="32" width="16" height="4"></rect>
                    <rect id="Rectangle" fill="#989CA0" x="192" y="32" width="16" height="4"></rect>
                    <rect id="Rectangle" fill="#989CA0" x="216" y="32" width="16" height="4"></rect>
                    <rect id="Rectangle" fill="#989CA0" x="240" y="32" width="16" height="4"></rect>
                    <rect id="Rectangle" fill="#989CA0" x="264" y="32" width="16" height="4"></rect>
                    <rect id="Rectangle" fill="#989CA0" x="288" y="32" width="16" height="4"></rect>
                    <rect id="Rectangle" fill="#989CA0" x="312" y="32" width="16" height="4"></rect>
                    <rect id="Rectangle" fill="#989CA0" x="336" y="32" width="16" height="4"></rect>
                    <rect id="Rectangle" fill="#989CA0" x="360" y="32" width="16" height="4"></rect>
                    <rect id="Rectangle" fill="#989CA0" x="0" y="48" width="16" height="4"></rect>
                    <rect id="Rectangle" fill="#989CA0" x="24" y="48" width="16" height="4"></rect>
                    <rect id="Rectangle" fill="#989CA0" x="48" y="48" width="16" height="4"></rect>
                    <rect id="Rectangle" fill="#E85868" x="72" y="48" width="16" height="4"></rect>
                    <rect id="Rectangle" fill="#989CA0" x="96" y="48" width="16" height="4"></rect>
                    <rect id="Rectangle" fill="#E85868" x="120" y="48" width="16" height="4"></rect>
                    <rect id="Rectangle" fill="#989CA0" x="144" y="48" width="16" height="4"></rect>
                    <rect id="Rectangle" fill="#E85868" x="168" y="48" width="16" height="4"></rect>
                    <rect id="Rectangle" fill="#E85868" x="192" y="48" width="16" height="4"></rect>
                    <rect id="Rectangle" fill="#E85868" x="216" y="48" width="16" height="4"></rect>
                    <rect id="Rectangle" fill="#989CA0" x="240" y="48" width="16" height="4"></rect>
                    <rect id="Rectangle" fill="#E85868" x="264" y="48" width="16" height="4"></rect>
                    <rect id="Rectangle" fill="#989CA0" x="288" y="48" width="16" height="4"></rect>
                    <rect id="Rectangle" fill="#E85868" x="312" y="48" width="16" height="4"></rect>
                    <rect id="Rectangle" fill="#989CA0" x="336" y="48" width="16" height="4"></rect>
                    <rect id="Rectangle" fill="#989CA0" x="360" y="48" width="16" height="4"></rect>
                    <rect id="Rectangle" fill="#989CA0" x="0" y="64" width="16" height="4"></rect>
                    <rect id="Rectangle" fill="#989CA0" x="24" y="64" width="16" height="4"></rect>
                    <rect id="Rectangle" fill="#989CA0" x="48" y="64" width="16" height="4"></rect>
                    <rect id="Rectangle" fill="#E85868" x="72" y="64" width="16" height="4"></rect>
                    <rect id="Rectangle" fill="#989CA0" x="96" y="64" width="16" height="4"></rect>
                    <rect id="Rectangle" fill="#E85868" x="120" y="64" width="16" height="4"></rect>
                    <rect id="Rectangle" fill="#989CA0" x="144" y="64" width="16" height="4"></rect>
                    <rect id="Rectangle" fill="#E85868" x="168" y="64" width="16" height="4"></rect>
                    <rect id="Rectangle" fill="#989CA0" x="192" y="64" width="16" height="4"></rect>
                    <rect id="Rectangle" fill="#E85868" x="216" y="64" width="16" height="4"></rect>
                    <rect id="Rectangle" fill="#989CA0" x="240" y="64" width="16" height="4"></rect>
                    <rect id="Rectangle" fill="#E85868" x="264" y="64" width="16" height="4"></rect>
                    <rect id="Rectangle" fill="#989CA0" x="288" y="64" width="16" height="4"></rect>
                    <rect id="Rectangle" fill="#E85868" x="312" y="64" width="16" height="4"></rect>
                    <rect id="Rectangle" fill="#989CA0" x="336" y="64" width="16" height="4"></rect>
                    <rect id="Rectangle" fill="#989CA0" x="360" y="64" width="16" height="4"></rect>
                    <rect id="Rectangle" fill="#989CA0" x="0" y="80" width="16" height="4"></rect>
                    <rect id="Rectangle" fill="#989CA0" x="24" y="80" width="16" height="4"></rect>
                    <rect id="Rectangle" fill="#989CA0" x="48" y="80" width="16" height="4"></rect>
                    <rect id="Rectangle" fill="#E85868" x="72" y="80" width="16" height="4"></rect>
                    <rect id="Rectangle" fill="#989CA0" x="96" y="80" width="16" height="4"></rect>
                    <rect id="Rectangle" fill="#E85868" x="120" y="80" width="16" height="4"></rect>
                    <rect id="Rectangle" fill="#989CA0" x="144" y="80" width="16" height="4"></rect>
                    <rect id="Rectangle" fill="#E85868" x="168" y="80" width="16" height="4"></rect>
                    <rect id="Rectangle" fill="#989CA0" x="192" y="80" width="16" height="4"></rect>
                    <rect id="Rectangle" fill="#E85868" x="216" y="80" width="16" height="4"></rect>
                    <rect id="Rectangle" fill="#989CA0" x="240" y="80" width="16" height="4"></rect>
                    <rect id="Rectangle" fill="#E85868" x="264" y="80" width="16" height="4"></rect>
                    <rect id="Rectangle" fill="#989CA0" x="288" y="80" width="16" height="4"></rect>
                    <rect id="Rectangle" fill="#E85868" x="312" y="80" width="16" height="4"></rect>
                    <rect id="Rectangle" fill="#989CA0" x="336" y="80" width="16" height="4"></rect>
                    <rect id="Rectangle" fill="#989CA0" x="360" y="80" width="16" height="4"></rect>
                    <rect id="Rectangle" fill="#989CA0" x="0" y="96" width="16" height="4"></rect>
                    <rect id="Rectangle" fill="#989CA0" x="24" y="96" width="16" height="4"></rect>
                    <rect id="Rectangle" fill="#989CA0" x="48" y="96" width="16" height="4"></rect>
                    <rect id="Rectangle" fill="#E85868" x="72" y="96" width="16" height="4"></rect>
                    <rect id="Rectangle" fill="#E85868" x="96" y="96" width="16" height="4"></rect>
                    <rect id="Rectangle" fill="#E85868" x="120" y="96" width="16" height="4"></rect>
                    <rect id="Rectangle" fill="#989CA0" x="144" y="96" width="16" height="4"></rect>
                    <rect id="Rectangle" fill="#E85868" x="168" y="96" width="16" height="4"></rect>
                    <rect id="Rectangle" fill="#989CA0" x="192" y="96" width="16" height="4"></rect>
                    <rect id="Rectangle" fill="#E85868" x="216" y="96" width="16" height="4"></rect>
                    <rect id="Rectangle" fill="#989CA0" x="240" y="96" width="16" height="4"></rect>
                    <rect id="Rectangle" fill="#E85868" x="264" y="96" width="16" height="4"></rect>
                    <rect id="Rectangle" fill="#E85868" x="288" y="96" width="16" height="4"></rect>
                    <rect id="Rectangle" fill="#E85868" x="312" y="96" width="16" height="4"></rect>
                    <rect id="Rectangle" fill="#989CA0" x="336" y="96" width="16" height="4"></rect>
                    <rect id="Rectangle" fill="#989CA0" x="360" y="96" width="16" height="4"></rect>
                    <rect id="Rectangle" fill="#989CA0" x="0" y="112" width="16" height="4"></rect>
                    <rect id="Rectangle" fill="#989CA0" x="24" y="112" width="16" height="4"></rect>
                    <rect id="Rectangle" fill="#989CA0" x="48" y="112" width="16" height="4"></rect>
                    <rect id="Rectangle" fill="#E85868" x="72" y="112" width="16" height="4"></rect>
                    <rect id="Rectangle" fill="#989CA0" x="96" y="112" width="16" height="4"></rect>
                    <rect id="Rectangle" fill="#989CA0" x="120" y="112" width="16" height="4"></rect>
                    <rect id="Rectangle" fill="#989CA0" x="144" y="112" width="16" height="4"></rect>
                    <rect id="Rectangle" fill="#E85868" x="168" y="112" width="16" height="4"></rect>
                    <rect id="Rectangle" fill="#989CA0" x="192" y="112" width="16" height="4"></rect>
                    <rect id="Rectangle" fill="#E85868" x="216" y="112" width="16" height="4"></rect>
                    <rect id="Rectangle" fill="#989CA0" x="240" y="112" width="16" height="4"></rect>
                    <rect id="Rectangle" fill="#E85868" x="264" y="112" width="16" height="4"></rect>
                    <rect id="Rectangle" fill="#989CA0" x="288" y="112" width="16" height="4"></rect>
                    <rect id="Rectangle" fill="#989CA0" x="312" y="112" width="16" height="4"></rect>
                    <rect id="Rectangle" fill="#989CA0" x="336" y="112" width="16" height="4"></rect>
                    <rect id="Rectangle" fill="#989CA0" x="360" y="112" width="16" height="4"></rect>
                    <rect id="Rectangle" fill="#989CA0" x="0" y="128" width="16" height="4"></rect>
                    <rect id="Rectangle" fill="#989CA0" x="24" y="128" width="16" height="4"></rect>
                    <rect id="Rectangle" fill="#989CA0" x="48" y="128" width="16" height="4"></rect>
                    <rect id="Rectangle" fill="#E85868" x="72" y="128" width="16" height="4"></rect>
                    <rect id="Rectangle" fill="#989CA0" x="96" y="128" width="16" height="4"></rect>
                    <rect id="Rectangle" fill="#989CA0" x="120" y="128" width="16" height="4"></rect>
                    <rect id="Rectangle" fill="#989CA0" x="144" y="128" width="16" height="4"></rect>
                    <rect id="Rectangle" fill="#E85868" x="168" y="128" width="16" height="4"></rect>
                    <rect id="Rectangle" fill="#E85868" x="192" y="128" width="16" height="4"></rect>
                    <rect id="Rectangle" fill="#E85868" x="216" y="128" width="16" height="4"></rect>
                    <rect id="Rectangle" fill="#989CA0" x="240" y="128" width="16" height="4"></rect>
                    <rect id="Rectangle" fill="#E85868" x="264" y="128" width="16" height="4"></rect>
                    <rect id="Rectangle" fill="#989CA0" x="288" y="128" width="16" height="4"></rect>
                    <rect id="Rectangle" fill="#989CA0" x="312" y="128" width="16" height="4"></rect>
                    <rect id="Rectangle" fill="#989CA0" x="336" y="128" width="16" height="4"></rect>
                    <rect id="Rectangle" fill="#989CA0" x="360" y="128" width="16" height="4"></rect>
                    <rect id="Rectangle" fill="#989CA0" x="0" y="144" width="16" height="4"></rect>
                    <rect id="Rectangle" fill="#989CA0" x="24" y="144" width="16" height="4"></rect>
                    <rect id="Rectangle" fill="#989CA0" x="48" y="144" width="16" height="4"></rect>
                    <rect id="Rectangle" fill="#989CA0" x="72" y="144" width="16" height="4"></rect>
                    <rect id="Rectangle" fill="#989CA0" x="96" y="144" width="16" height="4"></rect>
                    <rect id="Rectangle" fill="#989CA0" x="120" y="144" width="16" height="4"></rect>
                    <rect id="Rectangle" fill="#989CA0" x="144" y="144" width="16" height="4"></rect>
                    <rect id="Rectangle" fill="#989CA0" x="168" y="144" width="16" height="4"></rect>
                    <rect id="Rectangle" fill="#989CA0" x="192" y="144" width="16" height="4"></rect>
                    <rect id="Rectangle" fill="#989CA0" x="216" y="144" width="16" height="4"></rect>
                    <rect id="Rectangle" fill="#989CA0" x="240" y="144" width="16" height="4"></rect>
                    <rect id="Rectangle" fill="#989CA0" x="264" y="144" width="16" height="4"></rect>
                    <rect id="Rectangle" fill="#989CA0" x="288" y="144" width="16" height="4"></rect>
                    <rect id="Rectangle" fill="#989CA0" x="312" y="144" width="16" height="4"></rect>
                    <rect id="Rectangle" fill="#989CA0" x="336" y="144" width="16" height="4"></rect>
                    <rect id="Rectangle" fill="#989CA0" x="360" y="144" width="16" height="4"></rect>
                    <rect id="Rectangle" fill="#989CA0" x="0" y="160" width="16" height="4"></rect>
                    <rect id="Rectangle" fill="#989CA0" x="24" y="160" width="16" height="4"></rect>
                    <rect id="Rectangle" fill="#989CA0" x="48" y="160" width="16" height="4"></rect>
                    <rect id="Rectangle" fill="#989CA0" x="72" y="160" width="16" height="4"></rect>
                    <rect id="Rectangle" fill="#989CA0" x="96" y="160" width="16" height="4"></rect>
                    <rect id="Rectangle" fill="#989CA0" x="120" y="160" width="16" height="4"></rect>
                    <rect id="Rectangle" fill="#989CA0" x="144" y="160" width="16" height="4"></rect>
                    <rect id="Rectangle" fill="#989CA0" x="168" y="160" width="16" height="4"></rect>
                    <rect id="Rectangle" fill="#989CA0" x="192" y="160" width="16" height="4"></rect>
                    <rect id="Rectangle" fill="#989CA0" x="216" y="160" width="16" height="4"></rect>
                    <rect id="Rectangle" fill="#989CA0" x="240" y="160" width="16" height="4"></rect>
                    <rect id="Rectangle" fill="#989CA0" x="264" y="160" width="16" height="4"></rect>
                    <rect id="Rectangle" fill="#989CA0" x="288" y="160" width="16" height="4"></rect>
                    <rect id="Rectangle" fill="#989CA0" x="312" y="160" width="16" height="4"></rect>
                    <rect id="Rectangle" fill="#989CA0" x="336" y="160" width="16" height="4"></rect>
                    <rect id="Rectangle" fill="#989CA0" x="360" y="160" width="16" height="4"></rect>
                    <rect id="Rectangle" fill="#989CA0" x="0" y="176" width="16" height="4"></rect>
                    <rect id="Rectangle" fill="#989CA0" x="24" y="176" width="16" height="4"></rect>
                    <rect id="Rectangle" fill="#989CA0" x="48" y="176" width="16" height="4"></rect>
                    <rect id="Rectangle" fill="#989CA0" x="72" y="176" width="16" height="4"></rect>
                    <rect id="Rectangle" fill="#989CA0" x="96" y="176" width="16" height="4"></rect>
                    <rect id="Rectangle" fill="#989CA0" x="120" y="176" width="16" height="4"></rect>
                    <rect id="Rectangle" fill="#989CA0" x="144" y="176" width="16" height="4"></rect>
                    <rect id="Rectangle" fill="#989CA0" x="168" y="176" width="16" height="4"></rect>
                    <rect id="Rectangle" fill="#989CA0" x="192" y="176" width="16" height="4"></rect>
                    <rect id="Rectangle" fill="#989CA0" x="216" y="176" width="16" height="4"></rect>
                    <rect id="Rectangle" fill="#989CA0" x="240" y="176" width="16" height="4"></rect>
                    <rect id="Rectangle" fill="#989CA0" x="264" y="176" width="16" height="4"></rect>
                    <rect id="Rectangle" fill="#989CA0" x="288" y="176" width="16" height="4"></rect>
                    <rect id="Rectangle" fill="#989CA0" x="312" y="176" width="16" height="4"></rect>
                    <rect id="Rectangle" fill="#989CA0" x="336" y="176" width="16" height="4"></rect>
                    <rect id="Rectangle" fill="#989CA0" x="360" y="176" width="16" height="4"></rect>
                    <rect id="Rectangle" fill="#989CA0" x="0" y="192" width="16" height="4"></rect>
                    <rect id="Rectangle" fill="#989CA0" x="24" y="192" width="16" height="4"></rect>
                    <rect id="Rectangle" fill="#989CA0" x="48" y="192" width="16" height="4"></rect>
                    <rect id="Rectangle" fill="#989CA0" x="72" y="192" width="16" height="4"></rect>
                    <rect id="Rectangle" fill="#989CA0" x="0" y="208" width="16" height="4"></rect>
                    <rect id="Rectangle" fill="#989CA0" x="24" y="208" width="16" height="4"></rect>
                    <rect id="Rectangle" fill="#989CA0" x="48" y="208" width="16" height="4"></rect>
                    <rect id="Rectangle" fill="#989CA0" x="0" y="224" width="16" height="4"></rect>
                    <rect id="Rectangle" fill="#989CA0" x="24" y="224" width="16" height="4"></rect>
                    <rect id="Rectangle" fill="#989CA0" x="0" y="240" width="16" height="4"></rect>
                </g>
            </g>
        </g>
    </g>
</svg>